<svg width="90" height="90" viewBox="0 0 90 90" fill="none"
  xmlns="http://www.w3.org/2000/svg">
  <rect width="90" height="90" fill="#F03E2F"/>
  <path d="M27.7192 23.3177C27.7192 31.051 32.5801 35.6524 42.3117 38.0787L52.6239 40.4277C61.834 42.506 67.4427 47.668 67.4427 56.078C67.5143 59.7419 66.3019 63.3185 64.0086 66.2087C64.0086 57.818 59.5905 53.2844 48.9339 50.5584L38.8087 48.2964C30.7007 46.479 24.4425 42.2354 24.4425 33.1004C24.3999 29.5727 25.5526 26.1312 27.7192 23.3177Z" fill="white"/>
  <path d="M57.6718 54.019C62.0702 56.7836 63.9988 60.6503 63.9988 66.199C60.3581 70.781 53.9622 73.3523 46.4445 73.3523C33.7905 73.3523 24.9346 67.2333 22.9667 56.6H35.1189C36.6834 61.4816 40.826 63.7436 46.356 63.7436C53.1061 63.7436 57.5931 60.2056 57.6817 53.9996" fill="#F9B1AB"/>
  <path d="M34.0365 34.7823C32.028 33.6097 30.3802 31.9247 29.268 29.9061C28.1557 27.8876 27.6206 25.6109 27.7193 23.3177C31.2321 18.7743 37.3427 16 44.7915 16C57.6817 16 65.1403 22.6893 66.9803 32.1047H55.2906C54.0016 28.3927 50.7741 25.5023 44.8899 25.5023C38.6022 25.5023 34.312 29.0983 34.066 34.7823" fill="#F9B1AB"/>
</svg>
